<mxfile host="app.diagrams.net" modified="2024-06-04T07:08:21.916Z" agent="Mozilla/5.0 (Windows NT 10.0; Win64; x64) AppleWebKit/537.36 (KHTML, like Gecko) Chrome/125.0.0.0 Safari/537.36 Edg/125.0.0.0" etag="8HF7eH0t1cVWPEr7qyeR" version="24.4.13" type="github">
  <diagram name="第 1 页" id="fBY1kc_pKNjqClAuFcSY">
    <mxGraphModel dx="1179" dy="685" grid="1" gridSize="10" guides="1" tooltips="1" connect="1" arrows="1" fold="1" page="1" pageScale="1" pageWidth="1169" pageHeight="1654" math="0" shadow="0">
      <root>
        <mxCell id="0" />
        <mxCell id="1" parent="0" />
        <mxCell id="L7vpyP4ouVbw859hknRg-1" value="系统管理员" style="shape=umlActor;verticalLabelPosition=bottom;verticalAlign=top;html=1;fillColor=#dae8fc;strokeColor=#6c8ebf;" vertex="1" parent="1">
          <mxGeometry x="110" y="320" width="30" height="60" as="geometry" />
        </mxCell>
        <mxCell id="L7vpyP4ouVbw859hknRg-2" value="" style="rounded=1;whiteSpace=wrap;html=1;" vertex="1" parent="1">
          <mxGeometry x="290" y="110" width="480" height="570" as="geometry" />
        </mxCell>
        <mxCell id="L7vpyP4ouVbw859hknRg-3" value="管理房间" style="ellipse;whiteSpace=wrap;html=1;sketch=1;curveFitting=1;jiggle=2;fillColor=#ffe6cc;strokeColor=#d79b00;" vertex="1" parent="1">
          <mxGeometry x="310" y="190" width="120" height="80" as="geometry" />
        </mxCell>
        <mxCell id="L7vpyP4ouVbw859hknRg-4" value="管理客户" style="ellipse;whiteSpace=wrap;html=1;shadow=0;sketch=1;curveFitting=1;jiggle=2;fillColor=#ffe6cc;strokeColor=#d79b00;" vertex="1" parent="1">
          <mxGeometry x="310" y="330" width="120" height="80" as="geometry" />
        </mxCell>
        <mxCell id="L7vpyP4ouVbw859hknRg-5" value="管理订单" style="ellipse;whiteSpace=wrap;html=1;fillColor=#ffe6cc;strokeColor=#d79b00;sketch=1;curveFitting=1;jiggle=2;" vertex="1" parent="1">
          <mxGeometry x="310" y="525" width="120" height="80" as="geometry" />
        </mxCell>
        <mxCell id="L7vpyP4ouVbw859hknRg-6" value="价格" style="ellipse;whiteSpace=wrap;html=1;sketch=1;curveFitting=1;jiggle=2;fillColor=#f8cecc;strokeColor=#b85450;" vertex="1" parent="1">
          <mxGeometry x="560" y="170" width="140" height="30" as="geometry" />
        </mxCell>
        <mxCell id="L7vpyP4ouVbw859hknRg-7" value="使用状态" style="ellipse;whiteSpace=wrap;html=1;sketch=1;curveFitting=1;jiggle=2;fillColor=#f8cecc;strokeColor=#b85450;" vertex="1" parent="1">
          <mxGeometry x="560" y="220" width="140" height="30" as="geometry" />
        </mxCell>
        <mxCell id="L7vpyP4ouVbw859hknRg-8" value="清理状态" style="ellipse;whiteSpace=wrap;html=1;sketch=1;curveFitting=1;jiggle=2;fillColor=#f8cecc;strokeColor=#b85450;" vertex="1" parent="1">
          <mxGeometry x="560" y="270" width="140" height="30" as="geometry" />
        </mxCell>
        <mxCell id="L7vpyP4ouVbw859hknRg-18" value="&amp;lt;&amp;lt;include&amp;gt;&amp;gt;" style="html=1;verticalAlign=bottom;endArrow=open;dashed=1;endSize=8;curved=0;rounded=0;entryX=0;entryY=0.5;entryDx=0;entryDy=0;exitX=0.97;exitY=0.333;exitDx=0;exitDy=0;exitPerimeter=0;" edge="1" parent="1" source="L7vpyP4ouVbw859hknRg-3" target="L7vpyP4ouVbw859hknRg-6">
          <mxGeometry relative="1" as="geometry">
            <mxPoint x="510" y="230" as="sourcePoint" />
            <mxPoint x="510" y="230" as="targetPoint" />
          </mxGeometry>
        </mxCell>
        <mxCell id="L7vpyP4ouVbw859hknRg-19" value="&amp;lt;&amp;lt;include&amp;gt;&amp;gt;" style="html=1;verticalAlign=bottom;endArrow=open;dashed=1;endSize=8;curved=0;rounded=0;" edge="1" parent="1" source="L7vpyP4ouVbw859hknRg-3" target="L7vpyP4ouVbw859hknRg-7">
          <mxGeometry relative="1" as="geometry">
            <mxPoint x="510" y="230" as="sourcePoint" />
            <mxPoint x="510" y="230" as="targetPoint" />
          </mxGeometry>
        </mxCell>
        <mxCell id="L7vpyP4ouVbw859hknRg-22" value="&amp;lt;&amp;lt;include&amp;gt;&amp;gt;" style="html=1;verticalAlign=bottom;endArrow=open;dashed=1;endSize=8;curved=0;rounded=0;entryX=0;entryY=0.5;entryDx=0;entryDy=0;" edge="1" parent="1" source="L7vpyP4ouVbw859hknRg-3" target="L7vpyP4ouVbw859hknRg-8">
          <mxGeometry relative="1" as="geometry">
            <mxPoint x="510" y="230" as="sourcePoint" />
            <mxPoint x="510" y="230" as="targetPoint" />
          </mxGeometry>
        </mxCell>
        <mxCell id="L7vpyP4ouVbw859hknRg-26" value="" style="endArrow=classic;html=1;rounded=0;" edge="1" parent="1" target="L7vpyP4ouVbw859hknRg-3">
          <mxGeometry width="50" height="50" relative="1" as="geometry">
            <mxPoint x="140" y="350" as="sourcePoint" />
            <mxPoint x="190" y="300" as="targetPoint" />
          </mxGeometry>
        </mxCell>
        <mxCell id="L7vpyP4ouVbw859hknRg-27" value="" style="endArrow=classic;html=1;rounded=0;entryX=0;entryY=0.5;entryDx=0;entryDy=0;" edge="1" parent="1" target="L7vpyP4ouVbw859hknRg-4">
          <mxGeometry width="50" height="50" relative="1" as="geometry">
            <mxPoint x="140" y="350" as="sourcePoint" />
            <mxPoint x="180" y="320" as="targetPoint" />
          </mxGeometry>
        </mxCell>
        <mxCell id="L7vpyP4ouVbw859hknRg-29" value="" style="endArrow=classic;html=1;rounded=0;entryX=0;entryY=0.5;entryDx=0;entryDy=0;" edge="1" parent="1" target="L7vpyP4ouVbw859hknRg-5">
          <mxGeometry width="50" height="50" relative="1" as="geometry">
            <mxPoint x="140" y="350" as="sourcePoint" />
            <mxPoint x="320" y="470" as="targetPoint" />
          </mxGeometry>
        </mxCell>
        <mxCell id="L7vpyP4ouVbw859hknRg-30" value="基本信息" style="ellipse;whiteSpace=wrap;html=1;sketch=1;curveFitting=1;jiggle=2;fillColor=#f8cecc;strokeColor=#b85450;" vertex="1" parent="1">
          <mxGeometry x="560" y="330" width="140" height="30" as="geometry" />
        </mxCell>
        <mxCell id="L7vpyP4ouVbw859hknRg-31" value="住房信息" style="ellipse;whiteSpace=wrap;html=1;sketch=1;curveFitting=1;jiggle=2;fillColor=#f8cecc;strokeColor=#b85450;" vertex="1" parent="1">
          <mxGeometry x="560" y="380" width="140" height="30" as="geometry" />
        </mxCell>
        <mxCell id="L7vpyP4ouVbw859hknRg-34" value="&amp;lt;&amp;lt;include&amp;gt;&amp;gt;" style="html=1;verticalAlign=bottom;endArrow=open;dashed=1;endSize=8;curved=0;rounded=0;entryX=0;entryY=0.5;entryDx=0;entryDy=0;" edge="1" parent="1" source="L7vpyP4ouVbw859hknRg-4" target="L7vpyP4ouVbw859hknRg-30">
          <mxGeometry relative="1" as="geometry">
            <mxPoint x="500" y="360" as="sourcePoint" />
            <mxPoint x="550" y="340" as="targetPoint" />
          </mxGeometry>
        </mxCell>
        <mxCell id="L7vpyP4ouVbw859hknRg-35" value="&amp;lt;&amp;lt;include&amp;gt;&amp;gt;" style="html=1;verticalAlign=bottom;endArrow=open;dashed=1;endSize=8;curved=0;rounded=0;" edge="1" parent="1" source="L7vpyP4ouVbw859hknRg-4" target="L7vpyP4ouVbw859hknRg-31">
          <mxGeometry relative="1" as="geometry">
            <mxPoint x="510" y="370" as="sourcePoint" />
            <mxPoint x="510" y="370" as="targetPoint" />
          </mxGeometry>
        </mxCell>
        <mxCell id="L7vpyP4ouVbw859hknRg-37" value="客户入住" style="ellipse;whiteSpace=wrap;html=1;sketch=1;curveFitting=1;jiggle=2;fillColor=#f8cecc;strokeColor=#b85450;" vertex="1" parent="1">
          <mxGeometry x="550" y="470" width="140" height="30" as="geometry" />
        </mxCell>
        <mxCell id="L7vpyP4ouVbw859hknRg-38" value="收入统计" style="ellipse;whiteSpace=wrap;html=1;sketch=1;curveFitting=1;jiggle=2;fillColor=#f8cecc;strokeColor=#b85450;" vertex="1" parent="1">
          <mxGeometry x="550" y="525" width="140" height="30" as="geometry" />
        </mxCell>
        <mxCell id="L7vpyP4ouVbw859hknRg-39" value="房间统计" style="ellipse;whiteSpace=wrap;html=1;sketch=1;curveFitting=1;jiggle=2;fillColor=#f8cecc;strokeColor=#b85450;" vertex="1" parent="1">
          <mxGeometry x="550" y="580" width="140" height="30" as="geometry" />
        </mxCell>
        <mxCell id="L7vpyP4ouVbw859hknRg-40" value="数据分析" style="ellipse;whiteSpace=wrap;html=1;sketch=1;curveFitting=1;jiggle=2;fillColor=#f8cecc;strokeColor=#b85450;" vertex="1" parent="1">
          <mxGeometry x="550" y="640" width="140" height="30" as="geometry" />
        </mxCell>
        <mxCell id="L7vpyP4ouVbw859hknRg-43" value="&amp;lt;&amp;lt;include&amp;gt;&amp;gt;" style="html=1;verticalAlign=bottom;endArrow=open;dashed=1;endSize=8;curved=0;rounded=0;entryX=0;entryY=0.5;entryDx=0;entryDy=0;" edge="1" parent="1" source="L7vpyP4ouVbw859hknRg-5" target="L7vpyP4ouVbw859hknRg-37">
          <mxGeometry relative="1" as="geometry">
            <mxPoint x="510" y="565" as="sourcePoint" />
            <mxPoint x="510" y="565" as="targetPoint" />
          </mxGeometry>
        </mxCell>
        <mxCell id="L7vpyP4ouVbw859hknRg-44" value="&amp;lt;&amp;lt;include&amp;gt;&amp;gt;" style="html=1;verticalAlign=bottom;endArrow=open;dashed=1;endSize=8;curved=0;rounded=0;" edge="1" parent="1" source="L7vpyP4ouVbw859hknRg-5" target="L7vpyP4ouVbw859hknRg-38">
          <mxGeometry relative="1" as="geometry">
            <mxPoint x="510" y="565" as="sourcePoint" />
            <mxPoint x="510" y="565" as="targetPoint" />
          </mxGeometry>
        </mxCell>
        <mxCell id="L7vpyP4ouVbw859hknRg-46" value="&amp;lt;&amp;lt;include&amp;gt;&amp;gt;" style="html=1;verticalAlign=bottom;endArrow=open;dashed=1;endSize=8;curved=0;rounded=0;entryX=0;entryY=0.5;entryDx=0;entryDy=0;" edge="1" parent="1" source="L7vpyP4ouVbw859hknRg-5" target="L7vpyP4ouVbw859hknRg-39">
          <mxGeometry x="-0.0088" relative="1" as="geometry">
            <mxPoint x="510" y="565" as="sourcePoint" />
            <mxPoint x="510" y="565" as="targetPoint" />
            <mxPoint as="offset" />
          </mxGeometry>
        </mxCell>
        <mxCell id="L7vpyP4ouVbw859hknRg-48" value="&amp;lt;&amp;lt;include&amp;gt;&amp;gt;" style="html=1;verticalAlign=bottom;endArrow=open;dashed=1;endSize=8;curved=0;rounded=0;entryX=0;entryY=0.5;entryDx=0;entryDy=0;" edge="1" parent="1" source="L7vpyP4ouVbw859hknRg-5" target="L7vpyP4ouVbw859hknRg-40">
          <mxGeometry x="0.0048" relative="1" as="geometry">
            <mxPoint x="510" y="565" as="sourcePoint" />
            <mxPoint x="510" y="565" as="targetPoint" />
            <mxPoint as="offset" />
          </mxGeometry>
        </mxCell>
      </root>
    </mxGraphModel>
  </diagram>
</mxfile>
